<svg xmlns="http://www.w3.org/2000/svg" width="45.001" height="45.002" viewBox="0 0 45.001 45.002"><path d="M60 75.5A22.5 22.5 0 1 1 82.5 98 22.529 22.529 0 0 1 60 75.5zm5.047 0A17.455 17.455 0 1 0 82.5 58.05 17.477 17.477 0 0 0 65.045 75.5zm10.665 12.146c-.743 0-1.032-.321-1.032-1.064V64.589c0-.715.25-1.068.886-1.068h7.769c6.668 0 9.081 3.018 9.081 6.067v11.991c0 3.049-2.413 6.067-9.081 6.067zm4.688-4.787h2.929c1.739 0 3.227-.676 3.227-2.308V70.62c0-1.633-1.488-2.3-3.227-2.3H80.4z" transform="translate(-59.998 -52.998)" style="fill:#111"/></svg>